<svg width="128" height="32" viewBox="0 0 128 32" fill="none" xmlns="http://www.w3.org/2000/svg">
<path d="M51.56 13.36C51.56 14.1067 51.38 14.8067 51.02 15.46C50.6733 16.1133 50.12 16.64 49.36 17.04C48.6133 17.44 47.6667 17.64 46.52 17.64H44.18V23H41.38V9.04H46.52C47.6 9.04 48.52 9.22667 49.28 9.6C50.04 9.97333 50.6067 10.4867 50.98 11.14C51.3667 11.7933 51.56 12.5333 51.56 13.36ZM46.4 15.38C47.1733 15.38 47.7467 15.2067 48.12 14.86C48.4933 14.5 48.68 14 48.68 13.36C48.68 12 47.92 11.32 46.4 11.32H44.18V15.38H46.4ZM63.848 17.22C63.848 17.62 63.8213 17.98 63.768 18.3H55.668C55.7346 19.1 56.0146 19.7267 56.508 20.18C57.0013 20.6333 57.608 20.86 58.328 20.86C59.368 20.86 60.108 20.4133 60.548 19.52H63.568C63.248 20.5867 62.6346 21.4667 61.728 22.16C60.8213 22.84 59.708 23.18 58.388 23.18C57.3213 23.18 56.3613 22.9467 55.508 22.48C54.668 22 54.008 21.3267 53.528 20.46C53.0613 19.5933 52.828 18.5933 52.828 17.46C52.828 16.3133 53.0613 15.3067 53.528 14.44C53.9946 13.5733 54.648 12.9067 55.488 12.44C56.328 11.9733 57.2946 11.74 58.388 11.74C59.4413 11.74 60.3813 11.9667 61.208 12.42C62.048 12.8733 62.6946 13.52 63.148 14.36C63.6146 15.1867 63.848 16.14 63.848 17.22ZM60.948 16.42C60.9346 15.7 60.6746 15.1267 60.168 14.7C59.6613 14.26 59.0413 14.04 58.308 14.04C57.6146 14.04 57.028 14.2533 56.548 14.68C56.0813 15.0933 55.7946 15.6733 55.688 16.42H60.948ZM69.1517 14.22V19.58C69.1517 19.9533 69.2384 20.2267 69.4117 20.4C69.5984 20.56 69.9051 20.64 70.3317 20.64H71.6317V23H69.8717C67.5117 23 66.3317 21.8533 66.3317 19.56V14.22H65.0117V11.92H66.3317V9.18H69.1517V11.92H71.6317V14.22H69.1517ZM77.8856 23.18C76.979 23.18 76.1656 23.02 75.4456 22.7C74.7256 22.3667 74.1523 21.92 73.7256 21.36C73.3123 20.8 73.0856 20.18 73.0456 19.5H75.8656C75.919 19.9267 76.1256 20.28 76.4856 20.56C76.859 20.84 77.319 20.98 77.8656 20.98C78.399 20.98 78.8123 20.8733 79.1056 20.66C79.4123 20.4467 79.5656 20.1733 79.5656 19.84C79.5656 19.48 79.379 19.2133 79.0056 19.04C78.6456 18.8533 78.0656 18.6533 77.2656 18.44C76.439 18.24 75.759 18.0333 75.2256 17.82C74.7056 17.6067 74.2523 17.28 73.8656 16.84C73.4923 16.4 73.3056 15.8067 73.3056 15.06C73.3056 14.4467 73.479 13.8867 73.8256 13.38C74.1856 12.8733 74.6923 12.4733 75.3456 12.18C76.0123 11.8867 76.7923 11.74 77.6856 11.74C79.0056 11.74 80.059 12.0733 80.8456 12.74C81.6323 13.3933 82.0656 14.28 82.1456 15.4H79.4656C79.4256 14.96 79.239 14.6133 78.9056 14.36C78.5856 14.0933 78.1523 13.96 77.6056 13.96C77.099 13.96 76.7056 14.0533 76.4256 14.24C76.159 14.4267 76.0256 14.6867 76.0256 15.02C76.0256 15.3933 76.2123 15.68 76.5856 15.88C76.959 16.0667 77.539 16.26 78.3256 16.46C79.1256 16.66 79.7856 16.8667 80.3056 17.08C80.8256 17.2933 81.2723 17.6267 81.6456 18.08C82.0323 18.52 82.2323 19.1067 82.2456 19.84C82.2456 20.48 82.0656 21.0533 81.7056 21.56C81.359 22.0667 80.8523 22.4667 80.1856 22.76C79.5323 23.04 78.7656 23.18 77.8856 23.18ZM87.3441 13.52C87.7041 13.0133 88.1974 12.5933 88.8241 12.26C89.4641 11.9133 90.1907 11.74 91.0041 11.74C91.9507 11.74 92.8041 11.9733 93.5641 12.44C94.3374 12.9067 94.9441 13.5733 95.3841 14.44C95.8374 15.2933 96.0641 16.2867 96.0641 17.42C96.0641 18.5533 95.8374 19.56 95.3841 20.44C94.9441 21.3067 94.3374 21.98 93.5641 22.46C92.8041 22.94 91.9507 23.18 91.0041 23.18C90.1907 23.18 89.4707 23.0133 88.8441 22.68C88.2307 22.3467 87.7307 21.9267 87.3441 21.42V28.28H84.5441V11.92H87.3441V13.52ZM93.2041 17.42C93.2041 16.7533 93.0641 16.18 92.7841 15.7C92.5174 15.2067 92.1574 14.8333 91.7041 14.58C91.2641 14.3267 90.7841 14.2 90.2641 14.2C89.7574 14.2 89.2774 14.3333 88.8241 14.6C88.3841 14.8533 88.0241 15.2267 87.7441 15.72C87.4774 16.2133 87.3441 16.7933 87.3441 17.46C87.3441 18.1267 87.4774 18.7067 87.7441 19.2C88.0241 19.6933 88.3841 20.0733 88.8241 20.34C89.2774 20.5933 89.7574 20.72 90.2641 20.72C90.7841 20.72 91.2641 20.5867 91.7041 20.32C92.1574 20.0533 92.5174 19.6733 92.7841 19.18C93.0641 18.6867 93.2041 18.1 93.2041 17.42ZM97.3787 17.42C97.3787 16.3 97.5987 15.3067 98.0387 14.44C98.4921 13.5733 99.0988 12.9067 99.8588 12.44C100.632 11.9733 101.492 11.74 102.439 11.74C103.265 11.74 103.985 11.9067 104.599 12.24C105.225 12.5733 105.725 12.9933 106.099 13.5V11.92H108.919V23H106.099V21.38C105.739 21.9 105.239 22.3333 104.599 22.68C103.972 23.0133 103.245 23.18 102.419 23.18C101.485 23.18 100.632 22.94 99.8588 22.46C99.0988 21.98 98.4921 21.3067 98.0387 20.44C97.5987 19.56 97.3787 18.5533 97.3787 17.42ZM106.099 17.46C106.099 16.78 105.965 16.2 105.699 15.72C105.432 15.2267 105.072 14.8533 104.619 14.6C104.165 14.3333 103.679 14.2 103.159 14.2C102.639 14.2 102.159 14.3267 101.719 14.58C101.279 14.8333 100.919 15.2067 100.639 15.7C100.372 16.18 100.239 16.7533 100.239 17.42C100.239 18.0867 100.372 18.6733 100.639 19.18C100.919 19.6733 101.279 20.0533 101.719 20.32C102.172 20.5867 102.652 20.72 103.159 20.72C103.679 20.72 104.165 20.5933 104.619 20.34C105.072 20.0733 105.432 19.7 105.699 19.22C105.965 18.7267 106.099 18.14 106.099 17.46ZM127.013 11.92L123.773 23H120.753L118.733 15.26L116.713 23H113.673L110.413 11.92H113.253L115.213 20.36L117.333 11.92H120.293L122.373 20.34L124.333 11.92H127.013Z" fill="#747EF9"/>
<circle cx="16" cy="16" r="16" fill="#707CF8"/>
<path d="M11.7508 8.18975L10.7102 6L9.43163 6.60426L10.4723 8.79401L11.7508 8.18975ZM8.27629 9.76677L7.23564 7.57843L5.9557 8.18269L6.99636 10.371L8.27629 9.76677ZM15.2154 9.88112L14.2158 7.58972L12.9175 8.15163L13.9171 10.443L15.2154 9.88112ZM10.1905 10.8553C10.5904 10.6856 11.0232 10.6073 11.4573 10.6261C11.8915 10.645 12.3159 10.7604 12.6994 10.964L15.0498 12.1302C16.1626 12.7217 16.6412 14.2253 15.6926 15.287C15.2678 15.8136 14.6108 16.0353 14.0218 16.0353H12.9798C12.7079 16.0353 12.504 16.1398 12.4092 16.2612L12.4007 16.2711L11.7961 17.0151C11.3699 17.553 10.7073 17.7775 10.1127 17.7775C8.81432 17.7775 7.76092 16.5548 8.03135 15.2673L8.55097 12.7754C8.55491 12.7564 8.55963 12.7375 8.56513 12.7189C8.78742 11.9791 9.34243 11.2026 10.1905 10.8553ZM7.32059 13.3387L6.27994 11.1475L5 11.7518L6.04066 13.9416L7.32059 13.3387ZM20.5277 16.9332L21.5684 14.7449L20.2898 14.1378L19.2492 16.3275L20.5277 16.9332ZM24.0036 18.5102L25.0443 16.3219L23.7644 15.7162L22.7237 17.906L24.0036 18.5102ZM17.0829 18.5822L18.0825 16.2908L16.7842 15.7275L15.7832 18.0189L17.0815 18.5837L17.0829 18.5822ZM18.251 19.2105C18.6222 18.9405 19.0612 18.7787 19.5192 18.743C19.9773 18.7074 20.4362 18.7993 20.8449 19.0086C21.6816 19.3672 22.2267 20.1465 22.4405 20.964C22.4437 20.9752 22.4465 20.9865 22.449 20.9979L22.9701 23.4884C23.2334 24.7449 22.3046 26 20.8873 26C20.2927 26 19.6301 25.7741 19.2039 25.2376L18.5908 24.4837C18.496 24.3623 18.2935 24.2564 18.0202 24.2564H16.9767C16.3821 24.2564 15.7166 24.0305 15.2905 23.4869C15.1009 23.2471 14.9665 22.9688 14.8965 22.6715C14.8266 22.3743 14.8229 22.0653 14.8857 21.7665C14.9484 21.4677 15.0762 21.1862 15.2599 20.9419C15.4436 20.6976 15.6787 20.4965 15.9488 20.3527L15.9672 20.3428L18.251 19.2105ZM24.9579 22.0822L26 19.8938L24.7201 19.2867L23.6794 21.4765L24.9579 22.0822Z" fill="white"/>
</svg>
